<?xml version="1.0" encoding="UTF-8"?>
<svg id="Layer_1" xmlns="http://www.w3.org/2000/svg" version="1.1" viewBox="0 0 128 128">
  <!-- Generator: Adobe Illustrator 29.4.0, SVG Export Plug-In . SVG Version: 2.1.0 Build 152)  -->
  <defs>
    <style>
      .st0 {
        fill: #38b885;
      }

      .st1 {
        fill: #181818;
      }
    </style>
  </defs>
  <path class="st1" d="M113.1712,72.6248c-.8214,1.7202-1.8869,3.3392-3.2023,4.8034-3.8154,4.2618-9.2855,6.7081-15.0055,6.7081-11.1009,0-20.1304-9.0295-20.1304-20.1363,0-5.7141,2.4464-11.1842,6.7081-15.0055,3.738-3.3511,8.4343-5.1308,13.4103-5.1308.7738,0,1.5476.0417,2.3333.1309,6.9998.7738,12.9639,5.2439,15.8865,11.3866h12.5116c-3.4463-12.2616-14.1663-21.6422-27.1004-23.0708-9.0652-1-18.1364,1.8869-24.8803,7.9283-6.7498,6.0474-10.6187,14.7079-10.6187,23.7612,0,17.5888,14.3091,31.892,31.892,31.892,9.0533,0,17.7197-3.8689,23.7612-10.6247,3.2737-3.6547,5.6129-7.9998,6.9165-12.6485h-12.4818v.006Z"/>
  <path class="st0" d="M94.9694,95.892c-17.5828,0-31.892-14.3091-31.892-31.892,0-9.0533,3.8689-17.7138,10.6187-23.7612,6.7439-6.0415,15.815-8.9283,24.8803-7.9283,7.1546.7916,13.6246,4.0237,18.5709,8.8152-5.976-6.1546-14.3329-9.9938-23.5708-9.9938h-58.3912c-18.1245,0-32.8681,14.7436-32.8681,32.8681s14.7436,32.8681,32.8681,32.8681h58.3912c9.0831,0,17.3209-3.7082,23.2732-9.6843-5.8927,5.5594-13.7258,8.7081-21.8803,8.7081h0Z"/>
</svg>